<svg width="36" height="36" viewBox="0 0 36 36" fill="none" xmlns="http://www.w3.org/2000/svg">
<g opacity="0.5">
<path d="M16.9875 22.9875C17.2625 23.2625 17.6065 23.3935 18.0195 23.3805C18.4315 23.3685 18.775 23.225 19.05 22.95C19.325 22.675 19.4625 22.325 19.4625 21.9C19.4625 21.475 19.325 21.125 19.05 20.85L17.7 19.5H22.5375C22.9625 19.5 23.3125 19.356 23.5875 19.068C23.8625 18.781 24 18.425 24 18C24 17.575 23.8565 17.2185 23.5695 16.9305C23.2815 16.6435 22.925 16.5 22.5 16.5H17.7L19.0875 15.1125C19.3625 14.8375 19.494 14.4935 19.482 14.0805C19.469 13.6685 19.325 13.325 19.05 13.05C18.775 12.775 18.425 12.6375 18 12.6375C17.575 12.6375 17.225 12.775 16.95 13.05L13.05 16.95C12.775 17.225 12.6375 17.575 12.6375 18C12.6375 18.425 12.775 18.775 13.05 19.05L16.9875 22.9875ZM18 33C15.925 33 13.975 32.606 12.15 31.818C10.325 31.031 8.7375 29.9625 7.3875 28.6125C6.0375 27.2625 4.969 25.675 4.182 23.85C3.394 22.025 3 20.075 3 18C3 15.925 3.394 13.975 4.182 12.15C4.969 10.325 6.0375 8.7375 7.3875 7.3875C8.7375 6.0375 10.325 4.9685 12.15 4.1805C13.975 3.3935 15.925 3 18 3C20.075 3 22.025 3.3935 23.85 4.1805C25.675 4.9685 27.2625 6.0375 28.6125 7.3875C29.9625 8.7375 31.031 10.325 31.818 12.15C32.606 13.975 33 15.925 33 18C33 20.075 32.606 22.025 31.818 23.85C31.031 25.675 29.9625 27.2625 28.6125 28.6125C27.2625 29.9625 25.675 31.031 23.85 31.818C22.025 32.606 20.075 33 18 33Z" stroke="white"/>
</g>
</svg>
