<svg width="36" height="36" viewBox="0 0 36 36" fill="none" xmlns="http://www.w3.org/2000/svg">
<g opacity="0.5">
<path d="M19.0125 22.9875C18.7375 23.2625 18.3935 23.3935 17.9805 23.3805C17.5685 23.3685 17.225 23.225 16.95 22.95C16.675 22.675 16.5375 22.325 16.5375 21.9C16.5375 21.475 16.675 21.125 16.95 20.85L18.3 19.5H13.4625C13.0375 19.5 12.6875 19.356 12.4125 19.068C12.1375 18.781 12 18.425 12 18C12 17.575 12.1435 17.2185 12.4305 16.9305C12.7185 16.6435 13.075 16.5 13.5 16.5H18.3L16.9125 15.1125C16.6375 14.8375 16.506 14.4935 16.518 14.0805C16.531 13.6685 16.675 13.325 16.95 13.05C17.225 12.775 17.575 12.6375 18 12.6375C18.425 12.6375 18.775 12.775 19.05 13.05L22.95 16.95C23.225 17.225 23.3625 17.575 23.3625 18C23.3625 18.425 23.225 18.775 22.95 19.05L19.0125 22.9875ZM18 33C20.075 33 22.025 32.606 23.85 31.818C25.675 31.031 27.2625 29.9625 28.6125 28.6125C29.9625 27.2625 31.031 25.675 31.818 23.85C32.606 22.025 33 20.075 33 18C33 15.925 32.606 13.975 31.818 12.15C31.031 10.325 29.9625 8.7375 28.6125 7.3875C27.2625 6.0375 25.675 4.9685 23.85 4.1805C22.025 3.3935 20.075 3 18 3C15.925 3 13.975 3.3935 12.15 4.1805C10.325 4.9685 8.7375 6.0375 7.3875 7.3875C6.0375 8.7375 4.969 10.325 4.182 12.15C3.394 13.975 3 15.925 3 18C3 20.075 3.394 22.025 4.182 23.85C4.969 25.675 6.0375 27.2625 7.3875 28.6125C8.7375 29.9625 10.325 31.031 12.15 31.818C13.975 32.606 15.925 33 18 33Z" stroke="white"/>
</g>
</svg>
