<svg width="18" height="18" viewBox="0 0 18 18" fill="none" xmlns="http://www.w3.org/2000/svg">
<g clip-path="url(#clip0_111_187)">
<path fill-rule="evenodd" clip-rule="evenodd" d="M6.4548 10.2006L9.0018 11.9421L11.457 10.2483L16.9605 15.678C16.8156 15.7248 16.6608 15.75 16.4997 15.75H1.5003C1.3023 15.75 1.1133 15.7113 0.939601 15.642L6.4548 10.2006ZM18 5.7384V14.2497C18 14.472 17.9514 14.6826 17.865 14.8725L12.4704 9.5499L18 5.7384ZM8.49242e-07 5.7861L5.4378 9.5049L0.0954008 14.7771C0.032127 14.6085 -0.00019101 14.4298 8.49242e-07 14.2497V5.7861ZM16.4997 2.25C17.3277 2.25 18 2.9214 18 3.7503V4.2777L8.9982 10.4832L8.49242e-07 4.329V3.7503C8.49242e-07 2.9223 0.671401 2.25 1.5003 2.25H16.4997Z" fill="white"/>
</g>
<defs>
<clipPath id="clip0_111_187">
<rect width="18" height="18" fill="white"/>
</clipPath>
</defs>
</svg>
