<svg width="36" height="36" viewBox="0 0 36 36" fill="none" xmlns="http://www.w3.org/2000/svg">
<path d="M14.25 13.9875V22.0125C14.25 22.5875 14.5125 23.025 15.0375 23.325C15.5625 23.625 16.075 23.6 16.575 23.25L22.8 19.275C23.275 18.975 23.5125 18.55 23.5125 18C23.5125 17.45 23.275 17.025 22.8 16.725L16.575 12.75C16.075 12.4 15.5625 12.375 15.0375 12.675C14.5125 12.975 14.25 13.4125 14.25 13.9875ZM18 33C15.925 33 13.975 32.606 12.15 31.818C10.325 31.031 8.7375 29.9625 7.3875 28.6125C6.0375 27.2625 4.969 25.675 4.182 23.85C3.394 22.025 3 20.075 3 18C3 15.925 3.394 13.975 4.182 12.15C4.969 10.325 6.0375 8.7375 7.3875 7.3875C8.7375 6.0375 10.325 4.9685 12.15 4.1805C13.975 3.3935 15.925 3 18 3C20.075 3 22.025 3.3935 23.85 4.1805C25.675 4.9685 27.2625 6.0375 28.6125 7.3875C29.9625 8.7375 31.031 10.325 31.818 12.15C32.606 13.975 33 15.925 33 18C33 20.075 32.606 22.025 31.818 23.85C31.031 25.675 29.9625 27.2625 28.6125 28.6125C27.2625 29.9625 25.675 31.031 23.85 31.818C22.025 32.606 20.075 33 18 33Z" fill="white"/>
<path d="M14.25 13.9875V22.0125C14.25 22.5875 14.5125 23.025 15.0375 23.325C15.5625 23.625 16.075 23.6 16.575 23.25L22.8 19.275C23.275 18.975 23.5125 18.55 23.5125 18C23.5125 17.45 23.275 17.025 22.8 16.725L16.575 12.75C16.075 12.4 15.5625 12.375 15.0375 12.675C14.5125 12.975 14.25 13.4125 14.25 13.9875ZM18 33C15.925 33 13.975 32.606 12.15 31.818C10.325 31.031 8.7375 29.9625 7.3875 28.6125C6.0375 27.2625 4.969 25.675 4.182 23.85C3.394 22.025 3 20.075 3 18C3 15.925 3.394 13.975 4.182 12.15C4.969 10.325 6.0375 8.7375 7.3875 7.3875C8.7375 6.0375 10.325 4.9685 12.15 4.1805C13.975 3.3935 15.925 3 18 3C20.075 3 22.025 3.3935 23.85 4.1805C25.675 4.9685 27.2625 6.0375 28.6125 7.3875C29.9625 8.7375 31.031 10.325 31.818 12.15C32.606 13.975 33 15.925 33 18C33 20.075 32.606 22.025 31.818 23.85C31.031 25.675 29.9625 27.2625 28.6125 28.6125C27.2625 29.9625 25.675 31.031 23.85 31.818C22.025 32.606 20.075 33 18 33Z" fill="url(#paint0_linear_152_1433)"/>
<defs>
<linearGradient id="paint0_linear_152_1433" x1="3" y1="18" x2="40.5918" y2="18" gradientUnits="userSpaceOnUse">
<stop stop-color="#E07121"/>
<stop offset="1" stop-color="#B51919"/>
</linearGradient>
</defs>
</svg>
